<svg width="12" height="15" viewBox="0 0 12 15" fill="none" xmlns="http://www.w3.org/2000/svg">
<path fill-rule="evenodd" clip-rule="evenodd" d="M3 8.16667C3 7.79848 3.29848 7.5 3.66667 7.5H7.66667C8.03486 7.5 8.33333 7.79848 8.33333 8.16667C8.33333 8.53486 8.03486 8.83333 7.66667 8.83333H3.66667C3.29848 8.83333 3 8.53486 3 8.16667Z" fill="#424551"/>
<path fill-rule="evenodd" clip-rule="evenodd" d="M3 10.6667C3 10.2985 3.29848 10 3.66667 10H5.66667C6.03486 10 6.33333 10.2985 6.33333 10.6667C6.33333 11.0349 6.03486 11.3333 5.66667 11.3333H3.66667C3.29848 11.3333 3 11.0349 3 10.6667Z" fill="#424551"/>
<path fill-rule="evenodd" clip-rule="evenodd" d="M3.69528 0.195262C3.8203 0.0702379 3.98987 0 4.16668 0H8.66668C10.1394 0 11.3334 1.19391 11.3334 2.66667L11.3334 11.6667C11.3334 13.1394 10.1394 14.3333 8.66669 14.3333H2.66667C1.1939 14.3333 -3.73522e-06 13.1394 0 11.6667L1.64906e-05 4.16667C1.69277e-05 3.98985 0.0702548 3.82029 0.195279 3.69526L3.69528 0.195262ZM3.99999 1.77616V4H1.77616L3.99999 1.77616ZM1.33335 5.33333L1.33333 11.6667C1.33333 12.403 1.93029 13 2.66667 13H8.66669C9.40307 13 10 12.403 10 11.6667L10 2.66667C10 1.93029 9.40306 1.33333 8.66668 1.33333H5.33333V4.66667C5.33333 5.03486 5.03485 5.33333 4.66666 5.33333H1.33335Z" fill="#424551"/>
</svg>
