<svg width="22" height="20" viewBox="0 0 22 20" fill="none" xmlns="http://www.w3.org/2000/svg">
<path fill-rule="evenodd" clip-rule="evenodd" d="M20.5754 8.56738C20.4329 9.55411 20.0954 10.4919 19.5952 11.3544C19.6327 11.5679 19.6519 11.7837 19.6519 12.0005C19.6519 12.7533 19.4338 13.4738 19.0297 14.1284C18.828 14.4551 18.7761 14.838 18.7562 15.0909C18.7333 15.3808 18.741 15.6981 18.7617 16.0028C18.7849 16.3447 18.8269 16.7036 18.875 17.0422C18.4847 16.9284 18.0617 16.8141 17.6579 16.723C17.3221 16.6472 16.9785 16.5826 16.6673 16.5505C16.3958 16.5224 16.0035 16.5007 15.6526 16.6142C14.8855 16.8621 14.0415 17.0005 13.1519 17.0005C12.094 17.0005 11.1224 16.8127 10.2707 16.4865C10.0659 16.4957 9.85954 16.5005 9.65186 16.5005C8.44724 16.5005 7.28786 16.342 6.20312 16.0493C7.78008 17.8731 10.3798 19.0005 13.1519 19.0005C14.2348 19.0005 15.2742 18.8342 16.2321 18.5287C16.2337 18.5287 16.2368 18.5287 16.2414 18.5286C16.266 18.5281 16.3342 18.5267 16.4618 18.5399C16.6624 18.5606 16.9203 18.6068 17.2178 18.674C17.8102 18.8076 18.4758 19.0048 18.9946 19.1694C20.0948 19.5187 21.1607 18.5586 20.9641 17.4422C20.8795 16.9617 20.7916 16.3753 20.7571 15.8673C20.7397 15.6118 20.7378 15.4022 20.75 15.2483C20.755 15.1845 20.7614 15.1446 20.7655 15.1233C21.3281 14.1913 21.6519 13.1302 21.6519 12.0005C21.6519 10.7269 21.2563 9.56394 20.5754 8.56738Z" fill="#FF3F3A"/>
<path fill-rule="evenodd" clip-rule="evenodd" d="M4.24898 3.69816C2.90102 4.72895 2.15194 6.08209 2.15194 7.5C2.15194 8.20704 2.336 8.888 2.68132 9.52123C2.81285 9.76241 2.85016 10.0112 2.8635 10.1796C2.87805 10.3633 2.8708 10.552 2.85483 10.7285C2.82285 11.0819 2.74658 11.4823 2.65509 11.8766C2.54806 12.3379 2.41093 12.8299 2.27178 13.2918C2.80003 13.0998 3.37739 12.903 3.92474 12.7434C4.36711 12.6143 4.81385 12.5023 5.21145 12.4394C5.55396 12.3853 6.05099 12.3321 6.4789 12.4801C7.43922 12.8123 8.51351 13 9.65194 13C11.7991 13 13.706 12.3333 15.0549 11.3018C16.4029 10.271 17.1519 8.91791 17.1519 7.5C17.1519 6.08209 16.4029 4.72895 15.0549 3.69816C13.706 2.66667 11.7991 2 9.65194 2C7.50477 2 5.59786 2.66667 4.24898 3.69816ZM3.03408 2.10945C4.76159 0.788407 7.10469 0 9.65194 0C12.1992 0 14.5423 0.788407 16.2698 2.10945C17.9982 3.43119 19.1519 5.32806 19.1519 7.5C19.1519 9.67194 17.9982 11.5688 16.2698 12.8906C14.5423 14.2116 12.1992 15 9.65194 15C8.30888 15 7.02601 14.7811 5.86121 14.3826C5.86004 14.3859 5.76557 14.3767 5.52381 14.4149C5.24516 14.459 4.88948 14.5453 4.48488 14.6633C3.67941 14.8983 2.77486 15.2308 2.08588 15.4989C0.892247 15.9634 -0.323707 14.8171 0.0784532 13.5959C0.291603 12.9487 0.54299 12.1308 0.70683 11.4246C0.789364 11.0689 0.842922 10.7698 0.862965 10.5483C0.869922 10.4714 0.87172 10.4154 0.871318 10.3775C0.411035 9.49791 0.151938 8.52524 0.151938 7.5C0.151938 5.32806 1.30564 3.43119 3.03408 2.10945Z" fill="#FF3F3A"/>
</svg>
