<svg width="17" height="22" viewBox="0 0 17 22" fill="none" xmlns="http://www.w3.org/2000/svg">
<path fill-rule="evenodd" clip-rule="evenodd" d="M8.5 6.5C7.39543 6.5 6.5 7.39543 6.5 8.5C6.5 9.60457 7.39543 10.5 8.5 10.5C9.60457 10.5 10.5 9.60457 10.5 8.5C10.5 7.39543 9.60457 6.5 8.5 6.5ZM4.5 8.5C4.5 6.29086 6.29086 4.5 8.5 4.5C10.7091 4.5 12.5 6.29086 12.5 8.5C12.5 10.7091 10.7091 12.5 8.5 12.5C6.29086 12.5 4.5 10.7091 4.5 8.5Z" fill="#FF3F3A"/>
<path fill-rule="evenodd" clip-rule="evenodd" d="M8.5 2C4.88046 2 2 4.83606 2 8.26923C2 11.068 3.68201 13.8948 5.52064 16.1182C6.42325 17.2097 7.32842 18.1139 8.00846 18.7451C8.19038 18.914 8.35571 19.0629 8.5 19.1902C8.64429 19.0629 8.80962 18.914 8.99154 18.7451C9.67158 18.1139 10.5768 17.2097 11.4794 16.1182C13.318 13.8948 15 11.068 15 8.26923C15 4.83606 12.1195 2 8.5 2ZM8.5 20.5C7.88117 21.2855 7.88094 21.2853 7.88069 21.2851L7.8782 21.2832L7.87251 21.2787L7.85313 21.2632C7.83672 21.25 7.81339 21.2312 7.7836 21.2069C7.72403 21.1583 7.63859 21.0877 7.53097 20.9965C7.31582 20.814 7.01153 20.5486 6.64779 20.2109C5.92158 19.5368 4.95175 18.5687 3.97936 17.3928C2.06799 15.0814 0 11.7928 0 8.26923C0 3.67303 3.83527 0 8.5 0C13.1647 0 17 3.67303 17 8.26923C17 11.7928 14.932 15.0814 13.0206 17.3928C12.0482 18.5687 11.0784 19.5368 10.3522 20.2109C9.98847 20.5486 9.68418 20.814 9.46903 20.9965C9.36141 21.0877 9.27597 21.1583 9.2164 21.2069C9.18661 21.2312 9.16328 21.25 9.14687 21.2632L9.12749 21.2787L9.1218 21.2832L9.11997 21.2846C9.11971 21.2848 9.11883 21.2855 8.5 20.5ZM8.5 20.5L9.11883 21.2855C8.75583 21.5715 8.24368 21.5711 7.88069 21.2851L8.5 20.5Z" fill="#FF3F3A"/>
</svg>
