<svg width="12" height="16" viewBox="0 0 12 16" fill="none" xmlns="http://www.w3.org/2000/svg">
<path fill-rule="evenodd" clip-rule="evenodd" d="M2.13333 3.86667C2.13333 1.73117 3.8645 0 6 0C8.1355 0 9.86667 1.73117 9.86667 3.86667V7.06666C9.86667 9.20217 8.1355 10.9333 6 10.9333C3.8645 10.9333 2.13333 9.20217 2.13333 7.06667V3.86667ZM6 1.33333C4.60088 1.33333 3.46667 2.46755 3.46667 3.86667V7.06667C3.46667 8.46579 4.60088 9.6 6 9.6C7.39912 9.6 8.53333 8.46579 8.53333 7.06666V3.86667C8.53333 2.46755 7.39912 1.33333 6 1.33333Z" fill="#424551"/>
<path fill-rule="evenodd" clip-rule="evenodd" d="M0.666667 5.33333C1.03486 5.33333 1.33333 5.63181 1.33333 6V7.06667C1.33333 9.644 3.42267 11.7333 6 11.7333C8.57733 11.7333 10.6667 9.644 10.6667 7.06667V6C10.6667 5.63181 10.9651 5.33333 11.3333 5.33333C11.7015 5.33333 12 5.63181 12 6V7.06667C12 10.3804 9.31371 13.0667 6 13.0667C2.68629 13.0667 0 10.3804 0 7.06667V6C0 5.63181 0.298477 5.33333 0.666667 5.33333Z" fill="#424551"/>
<path fill-rule="evenodd" clip-rule="evenodd" d="M6 12.2667C6.36819 12.2667 6.66667 12.5651 6.66667 12.9333V13.8667H8.13333C8.50152 13.8667 8.8 14.1651 8.8 14.5333C8.8 14.9015 8.50152 15.2 8.13333 15.2H3.86667C3.49848 15.2 3.2 14.9015 3.2 14.5333C3.2 14.1651 3.49848 13.8667 3.86667 13.8667H5.33333V12.9333C5.33333 12.5651 5.63181 12.2667 6 12.2667Z" fill="#424551"/>
</svg>
