<svg width="96" height="96" viewBox="0 0 96 96" fill="none" xmlns="http://www.w3.org/2000/svg">
<g opacity="0.6">
<path d="M64.2998 11.9214L64.2998 0.000446322L95.9986 0.000442506L95.9986 31.6992L84.168 31.6992L84.168 11.9214L64.2998 11.9214Z" fill="white"/>
<path d="M42.8975 33.3257L42.8975 21.4951L74.5962 21.4951L74.5962 53.1035L62.6753 53.1035L62.6753 33.3257L42.8975 33.3257Z" fill="white"/>
<path d="M21.4936 54.8178L21.4936 42.8969L53.1021 42.8969L53.1021 74.5957L41.2715 74.5957L41.2715 54.8178L21.4936 54.8178Z" fill="white"/>
<path d="M7.67148e-06 76.2221L6.91469e-06 64.3012L31.6988 64.3012L31.6988 96L19.7779 96L19.7779 76.2221L7.67148e-06 76.2221Z" fill="white"/>
</g>
</svg>
